<?xml version="1.0" standalone="no"?>
<!DOCTYPE svg PUBLIC "-//W3C//DTD SVG 20010904//EN"
 "http://www.w3.org/TR/2001/REC-SVG-20010904/DTD/svg10.dtd">
<svg version="1.0" xmlns="http://www.w3.org/2000/svg"
 width="1500.000000pt" height="1601.000000pt" viewBox="0 0 1500.000000 1601.000000"
 preserveAspectRatio="xMidYMid meet">

<g transform="translate(0.000000,1601.000000) scale(0.100000,-0.100000)"
fill="#000000" stroke="none">
<path d="M7510 5990 c0 -5 5 -10 10 -10 6 0 10 5 10 10 0 6 -4 10 -10 10 -5 0
-10 -4 -10 -10z"/>
<path d="M10010 5990 c0 -5 5 -10 10 -10 6 0 10 5 10 10 0 6 -4 10 -10 10 -5
0 -10 -4 -10 -10z"/>
<path d="M5760 5401 c-54 -17 -109 -52 -143 -92 -74 -86 -95 -174 -57 -236 26
-44 51 -58 200 -117 71 -28 150 -66 175 -84 82 -58 105 -149 64 -260 -42 -113
-35 -129 35 -88 93 54 186 192 186 275 0 15 -11 48 -25 72 -57 100 -67 132
-75 229 -9 114 -35 175 -103 237 -66 61 -177 88 -257 64z"/>
<path d="M3838 4659 c-20 -11 -23 -36 -9 -71 5 -13 28 -104 51 -203 39 -167
60 -229 60 -179 0 36 52 102 101 128 50 28 133 35 170 16 10 -6 19 -9 19 -8 0
2 -18 68 -40 148 -28 104 -45 150 -61 163 -18 14 -42 17 -148 17 -69 0 -134
-5 -143 -11z m270 -78 c6 -37 -26 -52 -52 -25 -12 12 -13 20 -5 35 15 28 53
21 57 -10z"/>
<path d="M4261 4142 c-1 -55 2 -73 12 -70 18 6 19 47 3 98 l-14 45 -1 -73z"/>
<path d="M3955 3510 c-3 -5 -17 -10 -29 -10 -13 0 -41 -12 -62 -26 -81 -54
-376 -329 -818 -761 l-310 -303 -119 0 -120 0 -43 40 c-26 23 -53 40 -67 40
-29 0 -73 -33 -82 -60 -9 -29 -22 -25 -49 19 -28 43 -59 135 -76 222 -15 76
-44 104 -101 96 -56 -7 -102 -53 -124 -124 -14 -45 -17 -78 -12 -172 7 -160
44 -282 114 -384 64 -93 166 -102 260 -23 19 16 34 22 38 16 3 -5 30 -10 58
-10 44 0 57 -5 87 -31 51 -46 101 -76 158 -94 42 -14 57 -15 87 -5 40 13 90
73 100 120 l6 28 132 6 c718 31 1792 0 2551 -73 187 -18 325 26 427 137 44 47
60 76 86 148 17 49 34 107 37 129 5 38 -5 140 -15 150 -3 2 -34 -5 -69 -17
-54 -18 -90 -21 -205 -22 -132 0 -145 2 -235 33 -109 37 -210 96 -294 173
l-58 53 27 78 c15 43 26 79 24 82 -3 2 -142 68 -309 145 -168 78 -418 197
-557 266 -138 68 -263 124 -276 124 -14 0 -29 5 -32 10 -3 6 -33 10 -65 10
-32 0 -62 -4 -65 -10z m296 -709 c132 -98 236 -182 231 -185 -16 -10 -259 -64
-382 -85 -180 -30 -767 -95 -778 -86 -4 4 671 533 681 534 4 1 115 -80 248
-178z"/>
<path d="M7510 3490 c0 -5 5 -10 10 -10 6 0 10 5 10 10 0 6 -4 10 -10 10 -5 0
-10 -4 -10 -10z"/>
<path d="M10010 3490 c0 -5 5 -10 10 -10 6 0 10 5 10 10 0 6 -4 10 -10 10 -5
0 -10 -4 -10 -10z"/>
<path d="M9481 2970 c-19 -61 -37 -110 -41 -110 -4 0 -19 45 -35 101 -16 55
-32 102 -36 105 -8 5 -10 -2 -49 -149 -13 -48 -26 -84 -30 -80 -4 4 -27 59
-51 120 -24 62 -47 113 -50 113 -4 0 -21 -56 -39 -125 -18 -69 -35 -123 -37
-121 -3 2 -13 37 -23 76 -10 39 -21 74 -24 78 -3 3 -6 -189 -6 -426 l0 -432
388 0 387 0 -6 432 c-4 343 -8 442 -20 475 -8 23 -17 44 -20 48 -3 3 -16 -34
-29 -82 -13 -49 -26 -94 -30 -102 -7 -14 -21 36 -36 129 -4 22 -10 43 -15 46
-4 2 -24 -48 -44 -112 -20 -63 -38 -114 -40 -112 -1 1 -15 48 -29 103 -37 136
-36 135 -44 135 -4 0 -22 -50 -41 -110z"/>
<path d="M0 505 l0 -505 7500 0 7500 0 0 505 0 505 -7500 0 -7500 0 0 -505z
m683 163 c19 -29 48 -79 66 -110 l32 -58 -48 -82 c-27 -46 -56 -84 -64 -86 -9
-1 -24 13 -36 35 -21 38 -21 38 -2 73 23 43 24 83 3 120 -47 79 -168 79 -209
0 -41 -79 8 -167 98 -177 40 -5 50 -11 68 -40 34 -55 23 -63 -83 -63 -51 0
-98 4 -103 8 -14 9 -125 201 -125 215 0 6 27 57 61 114 l61 103 124 0 124 0
33 -52z m2094 -280 c-1 -62 -3 -12 -3 112 0 124 2 174 3 113 2 -62 2 -164 0
-225z m-1837 247 c0 -20 -5 -25 -25 -25 -20 0 -25 5 -25 25 0 20 5 25 25 25
20 0 25 -5 25 -25z m1550 -30 c0 -18 5 -25 20 -25 13 0 20 -7 20 -19 0 -10 -9
-21 -20 -24 -16 -4 -20 -14 -20 -52 0 -38 4 -48 20 -52 11 -3 20 -14 20 -24 0
-14 -7 -19 -28 -19 -41 0 -52 17 -52 83 0 50 -3 60 -20 64 -11 3 -20 11 -20
19 0 7 9 18 20 24 11 6 20 20 20 30 0 13 7 20 20 20 15 0 20 -7 20 -25z
m10990 -82 c0 -58 -3 -103 -7 -99 -4 4 -7 30 -8 58 0 40 -4 53 -22 65 -19 13
-24 12 -42 -6 -41 -41 -11 -117 40 -104 15 4 20 3 15 -5 -8 -13 -45 -16 -63
-4 -6 4 -17 20 -23 36 -24 64 31 129 82 97 16 -10 18 -8 18 29 0 22 2 40 5 40
3 0 5 -48 5 -107z m-9290 -6 l0 -103 -45 -2 c-36 -1 -47 3 -60 20 -20 29 -19
78 1 107 14 19 23 22 50 18 33 -6 34 -5 34 29 0 19 5 34 10 34 6 0 10 -41 10
-103z m950 68 c0 -33 1 -34 30 -29 18 4 36 1 45 -6 22 -18 29 -74 13 -107 -12
-25 -19 -28 -61 -28 l-47 0 0 103 c0 61 4 102 10 102 6 0 10 -16 10 -35z
m8177 -117 c-2 -29 -3 -6 -3 52 0 58 1 81 3 53 2 -29 2 -77 0 -105z m437 130
c10 -14 16 -44 16 -76 0 -43 -5 -58 -25 -77 -24 -25 -65 -34 -65 -15 0 6 9 10
19 10 22 0 51 25 51 44 0 8 -10 11 -30 8 -59 -8 -91 54 -54 106 20 30 68 30
88 0z m152 8 c16 -12 19 -27 19 -86 0 -59 -3 -74 -19 -86 -26 -19 -55 -18 -78
3 -25 22 -26 138 -1 165 19 22 52 23 79 4z m156 -3 c22 -20 23 -46 3 -63 -13
-11 -13 -14 0 -27 34 -34 7 -93 -42 -93 -30 0 -63 26 -63 48 0 10 8 6 25 -12
29 -31 36 -32 66 -8 29 24 20 48 -23 67 -25 11 -28 14 -12 15 43 0 60 51 24
70 -22 12 -55 0 -63 -22 -2 -7 -8 -10 -12 -6 -13 13 26 48 53 48 14 0 34 -7
44 -17z m138 -83 c0 -60 -4 -100 -10 -100 -6 0 -10 37 -10 90 l0 90 -26 -11
c-40 -15 -42 -2 -3 15 19 9 37 15 42 16 4 0 7 -45 7 -100z m191 78 c-26 -68
-84 -182 -87 -172 -3 5 11 45 31 86 19 42 35 81 35 87 0 5 -26 12 -57 14 -56
3 -56 3 14 5 71 2 72 2 64 -20z m133 6 c38 -37 32 -125 -9 -161 -26 -23 -72
-32 -60 -13 3 6 15 10 25 10 29 0 48 39 46 94 -1 37 -6 52 -21 62 -18 12 -24
11 -43 -2 -44 -31 -15 -102 37 -89 19 5 23 4 15 -5 -20 -21 -68 -8 -82 23 -31
64 44 130 92 81z m158 -1 c22 -20 23 -46 3 -63 -13 -11 -13 -14 0 -27 34 -34
7 -93 -42 -93 -30 0 -63 26 -63 48 0 10 8 6 25 -12 29 -31 36 -32 66 -8 29 24
20 48 -23 67 -25 11 -28 14 -12 15 43 0 60 51 24 70 -22 12 -55 0 -63 -22 -2
-7 -8 -10 -12 -6 -13 13 26 48 53 48 14 0 34 -7 44 -17z m-11652 -93 c0 -60
-4 -100 -10 -100 -6 0 -10 40 -10 100 0 60 4 100 10 100 6 0 10 -40 10 -100z
m1628 84 c27 -19 28 -55 2 -79 -20 -18 -20 -18 5 -62 14 -23 21 -43 16 -43 -6
0 -22 20 -37 46 -22 38 -31 45 -53 42 -23 -3 -27 -9 -32 -48 -4 -31 -6 -14 -7
58 l-2 102 43 0 c23 0 53 -7 65 -16z m-4075 -46 c55 -64 -31 -151 -101 -102
-16 11 -22 25 -22 53 0 72 76 103 123 49z m355 -66 l3 -92 -26 0 c-25 0 -25 0
-25 88 0 92 4 105 30 100 12 -3 16 -22 18 -96z m198 73 c26 -26 25 -45 -2 -45
-9 0 -22 7 -31 16 -22 21 -55 14 -72 -18 -13 -23 -13 -30 -1 -52 15 -29 59
-36 79 -12 11 14 51 11 51 -3 0 -12 -44 -48 -66 -55 -52 -16 -114 37 -114 97
0 83 99 129 156 72z m205 -4 c76 -77 -8 -202 -105 -156 -92 44 -62 185 39 185
27 0 44 -8 66 -29z m115 18 c4 -8 9 -8 17 0 13 13 56 14 74 3 20 -13 33 -61
33 -123 0 -56 -1 -59 -25 -59 -24 0 -25 2 -25 69 0 61 -2 70 -20 76 -36 11
-50 -12 -50 -81 0 -62 -1 -64 -25 -64 -25 0 -25 1 -25 88 0 49 3 92 7 95 10
11 31 8 39 -4z m285 -10 c20 -20 20 -22 4 -31 -11 -7 -21 -6 -28 1 -6 6 -21
11 -34 11 -33 0 -29 -28 5 -36 44 -10 72 -33 72 -58 0 -57 -94 -83 -132 -36
-17 21 -18 24 -3 33 11 6 22 4 35 -8 21 -19 55 -17 55 4 0 7 -18 19 -39 26
-21 8 -43 20 -47 27 -40 62 59 120 112 67z m197 1 c12 -12 22 -25 22 -31 0
-18 -31 -22 -49 -5 -22 20 -40 20 -63 -1 -35 -31 -15 -93 29 -93 15 0 34 7 42
14 11 10 21 12 31 6 20 -12 3 -40 -34 -58 -33 -17 -88 -1 -111 31 -18 26 -19
96 -2 118 33 42 100 52 135 19z m199 5 c26 -19 47 -77 38 -107 -18 -56 -69
-85 -121 -68 -43 15 -64 45 -64 93 0 75 87 124 147 82z m123 -55 c0 -57 3 -71
19 -79 33 -18 50 7 53 79 3 59 5 65 26 68 21 3 22 1 22 -92 0 -89 -1 -96 -20
-96 -11 0 -20 5 -20 10 0 6 -11 3 -25 -6 -21 -14 -30 -14 -55 -4 -34 14 -50
56 -50 131 0 50 5 59 32 59 16 0 18 -9 18 -70z m11290 50 c0 -5 -4 -10 -10
-10 -5 0 -10 5 -10 10 0 6 5 10 10 10 6 0 10 -4 10 -10z m-10385 -16 c22 -22
11 -30 -15 -11 -24 17 -60 11 -60 -10 0 -7 20 -22 45 -33 32 -14 45 -25 45
-39 0 -23 -28 -41 -63 -41 -26 0 -55 25 -43 37 4 4 10 2 14 -4 15 -24 72 -19
72 6 0 14 -12 23 -42 33 -48 15 -62 43 -32 65 24 18 59 16 79 -3z m65 6 c0 -6
10 -5 25 2 17 8 32 8 47 1 15 -6 31 -6 50 1 49 18 63 0 64 -80 1 -38 -1 -49
-3 -24 -6 85 -10 92 -46 88 -32 -3 -32 -3 -35 -65 -2 -35 -7 -63 -12 -63 -5 0
-10 28 -12 63 -3 56 -5 62 -26 65 -38 6 -52 -15 -52 -74 0 -30 -4 -54 -10 -54
-6 0 -10 32 -10 75 0 43 4 75 10 75 6 0 10 -4 10 -10z m250 -50 c0 -64 14 -82
53 -72 14 3 18 1 13 -6 -9 -14 -45 -15 -65 -3 -19 12 -29 141 -12 141 7 0 11
-22 11 -60z m100 -15 c0 -41 -4 -75 -9 -75 -14 0 -17 20 -13 88 5 87 22 78 22
-13z m60 63 c0 -9 3 -9 12 0 7 7 21 12 33 12 12 0 26 -5 33 -12 15 -15 16
-138 2 -138 -6 0 -10 29 -10 66 l0 65 -32 -3 c-33 -3 -33 -3 -36 -65 -4 -89
-22 -79 -22 12 0 43 4 75 10 75 6 0 10 -5 10 -12z m224 -4 c22 -21 23 -143 2
-125 -10 8 -16 9 -21 1 -15 -25 -85 0 -85 31 0 20 41 49 70 49 20 0 30 5 30
15 0 30 -54 39 -72 11 -4 -6 -11 -7 -15 -2 -11 11 26 36 53 36 13 0 30 -7 38
-16z m78 4 c7 -23 -4 -138 -13 -138 -5 0 -9 34 -9 75 0 67 11 97 22 63z m76 0
c7 -7 11 -38 10 -77 -1 -51 -2 -55 -5 -21 -6 81 -10 90 -44 90 -18 0 -28 4
-24 10 9 14 48 13 63 -2z m306 -4 c22 -21 23 -143 2 -125 -10 8 -16 9 -21 1
-15 -25 -85 0 -85 31 0 20 41 49 70 49 20 0 30 5 30 15 0 30 -54 39 -72 11 -4
-6 -11 -7 -15 -2 -11 11 26 36 53 36 13 0 30 -7 38 -16z m126 6 c0 -5 -10 -10
-22 -12 -21 -3 -23 -9 -26 -65 -4 -88 -22 -79 -22 10 l0 73 35 1 c19 1 35 -3
35 -7z m364 -6 c22 -21 23 -143 2 -125 -10 8 -16 9 -21 1 -15 -25 -85 0 -85
31 0 20 41 49 70 49 20 0 30 5 30 15 0 30 -54 39 -72 11 -4 -6 -11 -7 -15 -2
-11 11 26 36 53 36 13 0 30 -7 38 -16z m76 4 c0 -9 3 -9 12 0 15 15 50 16 65
1 8 -8 17 -8 31 0 54 29 82 1 82 -80 0 -33 -4 -59 -10 -59 -6 0 -10 27 -10 60
0 47 -4 61 -18 69 -14 7 -25 6 -40 -5 -18 -12 -22 -26 -24 -72 -1 -36 -3 -44
-5 -22 -9 97 -12 101 -46 98 -32 -3 -32 -3 -35 -65 -4 -89 -22 -79 -22 12 0
43 4 75 10 75 6 0 10 -5 10 -12z m472 0 c9 -7 19 -23 23 -35 6 -22 4 -23 -49
-23 -43 0 -56 -3 -56 -15 0 -20 39 -58 53 -52 52 21 53 21 38 4 -18 -22 -53
-22 -82 2 -17 14 -23 28 -22 55 2 62 53 96 95 64z m8188 -118 c0 -5 -4 -10
-10 -10 -5 0 -10 5 -10 10 0 6 5 10 10 10 6 0 10 -4 10 -10z"/>
<path d="M4096 525 c-9 -23 -7 -68 3 -83 5 -8 21 -12 37 -10 28 3 29 5 29 53
0 49 -1 50 -31 53 -22 2 -33 -2 -38 -13z"/>
<path d="M5144 526 c-3 -8 -4 -31 -2 -52 3 -35 6 -39 32 -42 16 -2 32 2 37 10
10 15 12 60 3 82 -8 20 -63 21 -70 2z"/>
<path d="M13677 594 c-11 -12 -8 -69 5 -82 32 -32 82 8 69 56 -6 21 -14 28
-37 30 -16 2 -33 0 -37 -4z"/>
<path d="M13843 595 c-14 -10 -18 -27 -18 -75 0 -66 19 -95 53 -83 26 10 32
24 32 83 0 30 -4 60 -8 66 -13 19 -40 23 -59 9z"/>
<path d="M4564 587 c-3 -8 -4 -28 -2 -44 2 -22 9 -29 30 -31 38 -5 68 14 68
43 0 28 -4 31 -52 40 -29 6 -39 4 -44 -8z"/>
<path d="M1234 516 c-14 -22 -14 -31 -4 -55 19 -46 74 -49 91 -4 23 62 -51
113 -87 59z"/>
<path d="M2044 514 c-34 -50 17 -111 65 -78 40 28 19 104 -29 104 -11 0 -27
-12 -36 -26z"/>
<path d="M3795 476 c-24 -17 -13 -46 18 -46 28 0 47 17 47 42 0 22 -37 24 -65
4z"/>
<path d="M4255 476 c-24 -17 -13 -46 18 -46 28 0 47 17 47 42 0 22 -37 24 -65
4z"/>
<path d="M4745 476 c-24 -17 -13 -46 18 -46 28 0 47 17 47 42 0 22 -37 24 -65
4z"/>
<path d="M5297 527 l-22 -22 44 -3 c49 -4 54 -1 46 21 -10 25 -44 28 -68 4z"/>
</g>
</svg>
